<?xml version="1.0" standalone="no"?>
<!DOCTYPE svg PUBLIC "-//W3C//DTD SVG 20010904//EN"
 "http://www.w3.org/TR/2001/REC-SVG-20010904/DTD/svg10.dtd">
<svg version="1.0" xmlns="http://www.w3.org/2000/svg"
 width="512.000000pt" height="512.000000pt" viewBox="0 0 512.000000 512.000000"
 preserveAspectRatio="xMidYMid meet">

<g transform="translate(0.000000,512.000000) scale(0.100000,-0.100000)"
fill="#000000" stroke="none">
<path d="M2354 4945 c-199 -19 -337 -47 -569 -120 -27 -8 -64 -22 -82 -30 -17
-8 -34 -15 -38 -15 -6 0 -59 -23 -155 -68 -358 -168 -736 -499 -961 -842 -90
-136 -165 -270 -152 -270 3 0 29 15 58 33 38 23 63 48 86 87 188 314 430 566
745 779 82 55 292 167 369 198 252 99 415 141 670 173 90 12 410 12 500 0 320
-40 624 -135 858 -267 33 -18 61 -33 64 -33 2 0 50 -30 106 -67 455 -297 799
-742 957 -1238 71 -222 93 -329 111 -532 12 -135 6 -414 -11 -518 -32 -198
-89 -421 -130 -510 -5 -11 -23 -54 -40 -95 -251 -605 -824 -1127 -1445 -1315
-49 -15 -101 -31 -115 -36 -51 -18 -288 -59 -400 -69 -637 -56 -1271 150
-1750 569 -351 308 -583 669 -725 1131 -32 105 -59 264 -84 495 -14 123 -14
182 -1 277 9 72 9 74 -24 143 l-34 70 -8 -90 c-16 -167 -8 -467 15 -610 90
-545 310 -977 690 -1355 410 -409 886 -635 1476 -701 150 -17 482 -6 632 20
428 75 798 240 1128 502 90 71 273 251 341 334 27 33 51 62 54 65 11 11 88
118 122 170 61 94 137 235 179 332 22 51 44 102 49 113 47 102 118 376 141
540 20 144 23 487 4 631 -27 215 -77 409 -157 614 -57 144 -221 435 -305 540
-6 8 -33 42 -60 75 -202 254 -508 498 -808 645 -292 144 -545 215 -875 245
-192 17 -232 17 -426 0z"/>
<path d="M3742 3400 c-59 -34 -76 -39 -92 -30 -16 9 -22 8 -26 -4 -3 -8 -3
-20 0 -25 4 -6 -4 -17 -17 -26 -18 -12 -31 -13 -50 -6 -28 11 -44 0 -31 -20 8
-13 -44 -58 -68 -59 -9 0 -40 11 -70 25 -79 37 -118 30 -118 -20 0 -26 18 -43
87 -81 48 -27 52 -31 55 -73 3 -36 0 -45 -14 -49 -23 -6 -23 -17 0 -34 29 -20
34 -66 9 -79 -19 -11 -19 -12 6 -34 21 -20 25 -33 26 -80 1 -78 14 -114 42
-115 10 0 19 77 20 168 0 45 5 82 10 82 5 0 8 3 7 8 -4 16 14 92 23 98 9 5 71
-16 134 -47 11 -5 40 -15 65 -22 45 -13 45 -13 57 -72 13 -68 28 -105 43 -105
5 0 10 9 10 20 0 10 5 42 11 70 9 40 15 50 31 50 16 0 18 3 9 13 -8 11 0 25
38 65 44 45 47 52 30 57 -12 4 -45 -6 -85 -24 l-64 -30 -80 52 c-43 29 -92 60
-109 69 -17 9 -31 21 -31 25 0 20 68 93 179 192 50 46 68 67 59 73 -18 11 -15
12 -96 -32z"/>
<path d="M1330 2641 c0 -109 -1 -111 -68 -111 -33 0 -118 -16 -194 -35 -25 -6
-28 -5 -28 19 0 14 -4 26 -10 26 -5 0 -10 -11 -10 -24 0 -13 -10 -30 -22 -38
l-23 -15 27 -79 c153 -448 468 -857 863 -1119 114 -76 315 -184 382 -205 21
-7 43 -16 48 -20 6 -4 28 -13 50 -20 22 -6 54 -18 70 -25 17 -7 48 -17 70 -20
22 -4 45 -10 50 -14 6 -3 15 -6 20 -7 31 -7 172 -36 185 -39 8 -1 44 -6 80 -9
36 -4 88 -9 115 -12 139 -16 422 -1 580 32 11 2 43 8 70 14 86 17 209 55 341
106 53 20 276 130 323 159 50 31 130 88 157 112 53 48 214 349 230 433 4 16
10 30 14 30 4 0 13 27 20 60 7 33 16 60 20 60 4 0 13 35 20 78 7 42 18 84 24
92 6 8 -7 -2 -28 -22 -50 -48 -221 -178 -234 -178 -6 0 -12 -4 -14 -9 -6 -16
-202 -109 -304 -144 -187 -65 -292 -82 -524 -81 -176 0 -219 4 -300 23 -103
24 -213 56 -245 70 -11 6 -53 24 -93 41 -149 63 -279 151 -425 287 -338 314
-663 459 -1052 470 -71 3 -135 9 -142 15 -9 7 -13 40 -13 104 0 77 -3 94 -15
94 -12 0 -15 -18 -15 -99z"/>
<path d="M503 2472 c-22 -3 -23 -7 -23 -128 0 -68 2 -124 5 -124 3 0 17 7 30
16 24 16 25 21 25 125 0 59 -3 109 -7 111 -5 2 -18 2 -30 0z"/>
</g>
</svg>
