<?xml version="1.0" standalone="no"?>
<!DOCTYPE svg PUBLIC "-//W3C//DTD SVG 20010904//EN"
 "http://www.w3.org/TR/2001/REC-SVG-20010904/DTD/svg10.dtd">
<svg version="1.0" xmlns="http://www.w3.org/2000/svg"
 width="48.000000pt" height="48.000000pt" viewBox="0 0 48.000000 48.000000"
 preserveAspectRatio="xMidYMid meet">

<g transform="translate(0.000000,48.000000) scale(0.100000,-0.100000)"
fill="#000000" stroke="none">
<path d="M52 408 c-17 -17 -17 -319 0 -336 17 -17 359 -17 376 0 17 17 17 319
0 336 -17 17 -359 17 -376 0z m348 -168 l0 -140 -160 0 -160 0 0 140 0 140
160 0 160 0 0 -140z"/>
<path d="M180 240 l0 -80 53 30 c87 51 84 49 67 60 -8 5 -39 23 -67 40 l-53
30 0 -80z"/>
</g>
</svg>
