<?xml version="1.0" standalone="no"?>
<!DOCTYPE svg PUBLIC "-//W3C//DTD SVG 20010904//EN"
 "http://www.w3.org/TR/2001/REC-SVG-20010904/DTD/svg10.dtd">
<svg version="1.0" xmlns="http://www.w3.org/2000/svg"
 width="48.000000pt" height="48.000000pt" viewBox="0 0 48.000000 48.000000"
 preserveAspectRatio="xMidYMid meet">

<g transform="translate(0.000000,48.000000) scale(0.100000,-0.100000)"
fill="#000000" stroke="none">
<path d="M52 408 c-17 -17 -17 -319 0 -336 17 -17 359 -17 376 0 17 17 17 319
0 336 -17 17 -359 17 -376 0z m207 -124 c34 -20 61 -40 61 -44 0 -9 -116 -80
-131 -80 -5 0 -9 36 -9 80 0 44 4 80 9 80 5 0 37 -16 70 -36z"/>
</g>
</svg>
