<?xml version="1.0" standalone="no"?>
<!DOCTYPE svg PUBLIC "-//W3C//DTD SVG 20010904//EN"
 "http://www.w3.org/TR/2001/REC-SVG-20010904/DTD/svg10.dtd">
<svg version="1.0" xmlns="http://www.w3.org/2000/svg"
 width="96.000000pt" height="96.000000pt" viewBox="0 0 96.000000 96.000000"
 preserveAspectRatio="xMidYMid meet">

<g transform="translate(0.000000,96.000000) scale(0.100000,-0.100000)"
fill="#000000" stroke="none">
<path d="M640 796 c0 -37 -4 -45 -22 -49 -16 -5 -30 1 -48 18 -32 31 -38 31
-67 3 l-23 -22 31 -32 c36 -37 32 -59 -7 -44 -70 27 -167 0 -234 -64 -25 -25
-59 -47 -77 -51 -50 -10 -108 -58 -133 -110 -46 -95 -7 -211 89 -262 43 -22
52 -23 283 -23 263 0 284 4 331 59 47 57 48 144 1 200 -35 42 -11 52 30 12
l32 -31 22 23 c28 29 28 35 -3 67 -17 18 -23 32 -18 48 4 18 12 22 49 22 l44
0 0 40 0 40 -44 0 c-37 0 -45 4 -50 22 -4 17 3 31 24 53 l30 31 -27 27 -27 27
-31 -30 c-22 -21 -36 -28 -53 -24 -18 5 -22 13 -22 50 l0 44 -40 0 -40 0 0
-44z m95 -141 c16 -15 25 -36 25 -55 0 -35 -38 -80 -69 -80 -11 0 -28 14 -40
33 -11 17 -28 42 -37 54 -15 21 -14 23 10 48 33 33 79 33 111 0z m-228 -71
c50 -25 85 -76 91 -134 4 -49 5 -50 39 -50 73 0 109 -84 58 -136 l-25 -25
-240 3 -240 3 -32 33 c-28 28 -33 39 -33 82 0 42 5 54 32 81 24 25 42 33 82
37 28 2 51 9 51 15 0 20 49 74 82 90 42 21 91 21 135 1z"/>
</g>
</svg>
