<?xml version="1.0" standalone="no"?>
<!DOCTYPE svg PUBLIC "-//W3C//DTD SVG 20010904//EN"
 "http://www.w3.org/TR/2001/REC-SVG-20010904/DTD/svg10.dtd">
<svg version="1.0" xmlns="http://www.w3.org/2000/svg"
 width="48.000000pt" height="48.000000pt" viewBox="0 0 48.000000 48.000000"
 preserveAspectRatio="xMidYMid meet">

<g transform="translate(0.000000,48.000000) scale(0.100000,-0.100000)"
fill="#000000" stroke="none">
<path d="M320 401 c0 -26 -17 -36 -36 -20 -20 17 -44 -5 -26 -23 20 -20 14
-24 -44 -24 -48 1 -59 -3 -77 -24 -12 -14 -37 -32 -55 -39 -55 -23 -76 -85
-48 -140 22 -42 54 -51 192 -51 119 0 126 1 149 25 29 28 32 70 9 103 -16 23
-6 30 14 10 18 -18 40 6 23 26 -16 19 -6 36 20 36 12 0 19 7 19 20 0 13 -7 20
-19 20 -26 0 -36 17 -20 36 17 21 -4 42 -25 25 -19 -16 -36 -6 -36 20 0 12 -7
19 -20 19 -13 0 -20 -7 -20 -19z m50 -76 c15 -18 10 -45 -12 -59 -35 -22 -74
27 -48 59 16 19 44 19 60 0z"/>
</g>
</svg>
